<svg width="800" height="800" viewBox="0 0 800 800" fill="none" xmlns="http://www.w3.org/2000/svg">
<circle cx="406" cy="394" r="317" fill="#1B2B34"/>
<path d="M688.696 538.049C699.947 516.107 708.707 492.708 714.603 468.19C716.094 462.023 717.348 455.737 718.484 449.417C721.669 431.388 723.448 412.886 723.448 393.96C723.448 392.875 723.38 391.808 723.346 390.723C723.279 381.421 722.821 372.221 721.923 363.156C719.009 332.911 711.723 303.954 700.913 276.776H701.235L700.269 271.422L698.524 270.728C684.054 236.637 663.806 205.596 639.017 178.825C637.391 177.045 635.747 175.351 634.087 173.623C629.393 168.76 624.581 164.033 619.6 159.458C563.245 108.135 488.353 76.7892 406.278 76.7892C323.473 76.7892 248.057 108.694 191.515 160.813C178.35 172.928 166.235 186.195 155.256 200.394C113.828 253.987 89.0734 321.135 89.0734 393.943C89.0734 568.836 231.367 711.147 406.278 711.147C529.323 711.13 636.137 640.678 688.696 538.049ZM689.527 327.015C689.882 328.675 690.323 330.319 690.679 331.979L688.629 328.099L689.527 327.015ZM663.687 263.916L665.5 261.832C667.923 266.525 670.177 271.304 672.312 276.099L669.279 275.997L663.653 276.76L663.687 263.916ZM617.854 208.544L617.888 194.379C622.887 199.665 627.682 205.104 632.291 210.73L626.597 219.235L606.604 219.066L605.35 214.898L617.854 208.544ZM235.23 173.369V172.81H241.584L242.126 170.624H252.53V175.165L249.548 179.163H235.213L235.23 173.369ZM245.397 187.5C245.397 187.5 251.751 186.432 252.31 186.432C252.835 186.432 252.31 192.752 252.31 192.752L237.958 193.65L235.23 190.414L245.397 187.5ZM406.295 685.07C245.769 685.07 115.184 554.485 115.184 393.926C115.184 353.515 123.469 315.035 138.431 280.013V270.948L148.817 258.308C152.443 251.462 156.306 244.837 160.441 238.348L160.915 243.618L148.817 258.308L138.431 280.013V296.601L150.512 302.395V325.439L162.135 345.229L171.573 346.686L172.776 339.909L161.661 322.728L159.492 306.055H166.015L168.76 323.236L184.873 346.703L180.688 354.277L190.922 369.899L216.321 376.219V372.119L226.487 373.542L225.522 380.794L233.519 382.285L245.82 385.589L263.221 405.464L285.469 407.159L287.654 425.289L272.422 435.946L271.71 452.161L269.541 462.057L291.551 489.658L293.246 499.096C293.246 499.096 301.26 501.248 302.209 501.248C303.158 501.248 320.102 514.091 320.102 514.091V563.923L326.134 565.617L322.033 588.576L332.2 602.148L330.336 624.92L343.755 648.557L360.987 663.637L378.32 663.992L380.032 658.435L367.29 647.709L368.019 642.389L370.323 635.866L370.797 629.19L362.19 628.936L357.852 623.497L364.986 616.601L365.968 611.382L357.988 609.078L358.428 604.249L369.832 602.52L387.131 594.218L392.943 583.56L411.09 560.33L406.955 542.218L412.513 532.526L429.22 533.051L440.436 524.172L444.079 489.133L456.516 473.307L458.702 463.124L447.349 459.464L439.843 447.112L414.19 446.841L393.858 439.098L392.909 424.628L386.132 412.75L367.748 412.479L357.107 395.823L347.652 391.181L347.195 396.247L330.014 397.281L323.728 388.504L305.818 384.895L291.06 401.957L267.83 398.009L266.136 371.831L249.192 368.951L255.986 356.107L254.038 348.72L231.774 363.613L217.778 361.885L212.78 350.939L215.83 339.655L223.573 325.422L241.347 316.425H275.675L275.573 326.879L287.925 332.64L286.943 314.731L295.821 305.801L313.782 293.991L315.002 285.689L332.911 267.085L351.939 256.563L350.262 255.173L363.156 243.025L367.866 244.278L370.018 246.989L374.915 241.567L376.118 241.042L370.764 240.28L365.325 238.501V233.214L368.222 230.859H374.576L377.49 232.147L379.998 237.213L383.099 236.755V236.298L383.997 236.637L392.909 235.247L394.163 230.876L399.246 232.164V236.857L394.519 240.127H394.553L395.247 245.295L411.378 250.293C411.378 250.293 411.412 250.361 411.446 250.497L415.173 250.158L415.427 243.177L402.618 237.314L401.889 233.977L412.53 230.334L412.987 220.167L401.872 213.39L401.144 196.209L385.894 203.715H380.354L381.794 190.651L361.038 185.738L352.447 192.227V212.017L337.029 216.88L330.844 229.758L324.134 230.842V214.356L309.63 212.339L302.378 207.612L299.464 196.954L325.405 181.773L338.096 177.893L339.367 186.432L346.449 186.043L346.974 181.773L354.396 180.688L354.531 179.197L351.346 177.91L350.617 173.369L359.699 172.572L365.206 166.879L365.511 166.456L365.579 166.489L367.256 164.761L386.369 162.338L394.824 169.522L372.644 181.332L400.856 187.991L404.516 178.553H416.851L421.222 170.319L412.479 168.133V157.747L385.166 145.666L366.307 147.817L355.65 153.409L356.378 166.913L345.263 165.253L343.535 157.747L354.193 148.089L334.843 147.089L329.285 148.783L326.862 155.34L334.114 156.56L332.657 163.812L320.322 164.541L318.39 169.37L300.498 169.827C300.498 169.827 300.006 159.695 299.295 159.695C298.566 159.695 313.307 159.424 313.307 159.424L323.948 149.037L318.136 146.123L310.41 153.629L297.566 152.901L289.823 142.243H273.388L256.207 155.052H271.931L273.388 159.678L269.27 163.524L286.689 164.016L289.349 170.302L269.745 169.573L268.779 164.744L256.444 162.101L249.904 158.458L235.23 158.594C283.283 123.588 342.366 102.832 406.261 102.832C479.847 102.832 547.097 130.365 598.42 175.571L594.98 181.756L581.544 186.991L575.885 193.142L577.172 200.326L584.119 201.258L588.288 211.712L600.233 206.917L602.215 220.879H598.572L588.745 219.422L577.884 221.235L567.362 236.094L552.282 238.484L550.113 251.361L556.467 252.852L554.654 261.154L539.693 258.138L525.952 261.154L523.071 268.762L525.426 284.774L533.508 288.552L547.03 288.451L556.111 287.62L558.89 280.369L573.174 261.832L582.544 263.747L591.778 255.41L593.523 261.968L616.296 277.285L613.5 280.995L603.266 280.47L607.18 286.062L613.5 287.451L620.904 284.333L620.752 275.472L624.022 273.811L621.379 271.033L606.197 262.561L602.249 251.344H614.822L618.837 255.309L629.715 264.679L630.156 275.997L641.406 287.976L645.608 271.558L653.386 267.288L654.843 280.724L662.45 289.061L677.615 288.79C680.58 296.363 683.207 304.039 685.511 311.884L683.867 313.375H660.638L646.506 302.819L631.613 304.276V313.375H626.902L621.819 309.732L596.048 303.209V286.502L563.414 289.044L553.231 294.5H540.252L533.864 293.839L518.107 302.582V319.068L485.981 342.264L488.658 352.193H495.182L493.453 361.631L488.862 363.325L488.607 388.012L516.429 419.697H528.544L529.272 417.783H551.045L557.331 411.954H569.683L576.461 418.714L594.828 420.612L592.388 445.028L612.805 481.101L602.029 501.654L602.758 511.346L611.23 519.75V543.048L622.345 558.043V577.376H631.935C578.63 643.067 497.3 685.07 406.295 685.07ZM262.086 220.896L269.711 217.253L276.607 218.88L274.235 228.148L266.797 230.537L262.086 220.896ZM302.531 242.669V248.667H285.13L278.606 246.854L280.25 242.686L288.603 239.212H300.023V242.686L302.531 242.669ZM310.545 251.005V256.8L306.174 259.612L300.752 260.646C300.752 260.646 300.752 251.903 300.752 251.022L310.545 251.005ZM305.632 248.65V241.737L311.63 247.193L305.632 248.65ZM308.36 262.595V268.254L304.191 272.422H294.94L296.38 266.068L300.752 265.712L301.667 263.526L308.36 262.595ZM285.316 251.005H294.923L282.588 268.254L277.488 265.509L278.572 258.257L285.316 251.005ZM324.693 260.629V266.254H315.425L312.918 262.578V257.342H313.646L324.693 260.629ZM316.171 252.852L318.797 250.107L323.253 252.852L319.695 255.8L316.171 252.852Z" fill="#718B9A"/>
<path d="M551.384 217.88L551.96 222.573L544.928 224.03L543.963 234.061H552.435L563.685 232.977L569.463 226.081L563.329 223.675L559.941 219.795L554.858 211.594L552.435 199.936L542.878 201.902L540.184 206.002V210.594L544.81 213.746L551.384 217.88Z" fill="#718B9A"/>
<path d="M543.234 221.726L543.726 215.457L538.134 213.017L530.289 214.83L524.511 224.132V230.198H531.272L543.234 221.726Z" fill="#718B9A"/>
<path d="M382.099 248.43L380.371 252.869H372.051V257.173H374.034C374.034 257.173 374.152 258.104 374.322 259.29L379.456 258.867L382.641 256.918L383.488 252.886L387.623 252.53L389.249 249.158L385.454 248.396L382.099 248.43Z" fill="#718B9A"/>
<path d="M360.614 256.241L360.275 260.443L366.341 259.934L366.968 255.732L363.342 252.852L360.614 256.241Z" fill="#718B9A"/>
<path d="M665.534 106.915C667.805 106.915 670.024 106.746 672.21 106.458H743.12V106.017C759.928 103.967 772.737 93.7668 772.737 81.3979C772.737 67.5379 756.743 56.338 737.003 56.338C737.003 56.338 736.969 56.338 736.935 56.338C736.579 42.7322 720.788 31.7526 701.286 31.7526C681.58 31.7526 665.602 42.9694 665.602 56.8125C645.846 56.8125 629.868 68.0292 629.868 81.8723C629.868 95.7153 645.778 106.915 665.534 106.915ZM701.218 81.8723C701.252 81.8723 701.252 81.8723 701.319 81.8723C701.319 81.9062 701.319 81.974 701.319 82.0078H701.184C701.184 81.957 701.218 81.9401 701.218 81.8723Z" fill="white"/>
<path d="M748.508 678.412C748.508 678.412 748.474 678.412 748.44 678.412C748.101 666.161 733.919 656.266 716.332 656.266C698.558 656.266 684.206 666.364 684.206 678.835C666.432 678.835 652.047 688.934 652.047 701.404C652.047 713.824 666.466 723.939 684.206 723.939C686.223 723.939 688.239 723.753 690.204 723.55H754.065V723.109C769.213 721.313 780.684 712.113 780.684 700.964C780.667 688.493 766.282 678.412 748.508 678.412ZM716.332 701.506C716.332 701.472 716.366 701.438 716.366 701.404C716.399 701.404 716.399 701.404 716.399 701.404C716.399 701.438 716.433 701.472 716.433 701.506H716.332Z" fill="white"/>
<path d="M172.708 707.928C172.708 707.928 172.657 707.928 172.589 707.928C172.03 685.985 146.547 668.279 115.15 668.279C83.3633 668.279 57.6088 686.324 57.6088 708.656C25.7884 708.656 0 726.718 0 749.067C0 771.365 25.7884 789.444 57.6088 789.444C61.2517 789.444 64.8438 789.139 68.3342 788.715H182.586V787.953C209.679 784.717 230.283 768.23 230.283 748.338C230.283 725.956 204.528 707.928 172.708 707.928ZM115.099 749.253C115.099 749.186 115.167 749.152 115.167 749.05C115.218 749.05 115.218 749.05 115.268 749.05C115.268 749.118 115.285 749.186 115.285 749.253H115.099Z" fill="white"/>
<path d="M210.154 52.9832C211.424 52.9832 212.678 52.8815 213.915 52.7121H253.919V52.441C263.408 51.2888 270.609 45.5279 270.609 38.581C270.609 30.736 261.595 24.416 250.463 24.416H250.412C250.209 16.7404 241.296 10.556 230.3 10.556C219.168 10.556 210.154 16.876 210.154 24.6871C199.022 24.6871 189.99 31.0071 189.99 38.8521C189.974 46.6462 199.022 52.9832 210.154 52.9832ZM230.3 38.8521H230.334C230.334 38.8521 230.334 38.8859 230.334 38.9198H230.266C230.266 38.8859 230.3 38.8859 230.3 38.8521Z" fill="white"/>
<path d="M700.015 583.696C700.015 591.507 709.046 597.827 720.161 597.827C721.449 597.827 722.669 597.725 723.939 597.556H763.944V597.268C773.449 596.133 780.616 590.355 780.616 583.425C780.616 575.563 771.619 569.26 760.47 569.26H760.436C760.233 561.584 751.304 555.4 740.307 555.4C729.192 555.4 720.161 561.72 720.161 569.531C709.063 569.531 700.015 575.851 700.015 583.696ZM740.358 583.696C740.358 583.696 740.358 583.696 740.392 583.696C740.392 583.696 740.392 583.73 740.392 583.764H740.324C740.324 583.73 740.358 583.73 740.358 583.696Z" fill="white"/>
<path d="M779.871 231.011C779.871 231.011 779.837 231.011 779.803 231.011C779.6 223.336 770.704 217.151 759.674 217.151C748.559 217.151 739.545 223.471 739.545 231.282C728.396 231.282 719.382 237.602 719.382 245.447C719.382 253.259 728.396 259.579 739.545 259.579C740.798 259.579 742.052 259.477 743.306 259.307H783.293V259.036C792.816 257.884 799.966 252.123 799.966 245.176C800 237.331 791.003 231.011 779.871 231.011ZM759.725 245.515H759.657C759.657 245.481 759.691 245.481 759.691 245.447H759.725C759.725 245.447 759.725 245.481 759.725 245.515Z" fill="white"/>
<path d="M625.513 754.15H625.479C625.259 746.492 616.347 740.307 605.35 740.307C594.235 740.307 585.221 746.627 585.221 754.438C574.106 754.438 565.092 760.758 565.092 768.603C565.092 776.414 574.106 782.734 585.221 782.734C586.492 782.734 587.745 782.633 588.999 782.463H629.003V782.175C638.492 781.023 645.659 775.262 645.659 768.315C645.642 760.47 636.645 754.15 625.513 754.15ZM605.384 768.654H605.316C605.316 768.62 605.35 768.62 605.35 768.586H605.384C605.384 768.586 605.384 768.62 605.384 768.654Z" fill="white"/>
<path d="M68.9442 569.531C57.8121 569.531 48.7811 575.851 48.7811 583.696C48.7811 591.507 57.8121 597.827 68.9442 597.827C70.215 597.827 71.4688 597.725 72.7057 597.556H112.71V597.268C122.198 596.133 129.4 590.355 129.4 583.425C129.4 575.563 120.385 569.26 109.253 569.26H109.203C108.999 561.584 100.087 555.4 89.0903 555.4C77.9583 555.4 68.9442 561.72 68.9442 569.531ZM89.0903 583.696H89.1242C89.1242 583.696 89.1242 583.73 89.1242 583.764H89.0564C89.0564 583.73 89.0903 583.73 89.0903 583.696Z" fill="white"/>
<path d="M108.931 207.426C116.895 206.46 122.944 201.631 122.944 195.768C122.944 189.177 115.37 183.891 106.017 183.891H105.983C105.814 177.435 98.3247 172.233 89.0903 172.233C79.7374 172.233 72.1805 177.554 72.1805 184.111C62.8275 184.111 55.2367 189.414 55.2367 195.989C55.2367 202.546 62.8275 207.832 72.1805 207.832C73.2479 207.832 74.2984 207.764 75.332 207.629H108.931V207.426ZM89.1242 196.039H89.0734C89.0734 196.039 89.0903 196.039 89.0903 196.006H89.1242V196.039Z" fill="white"/>
<path d="M322.575 734.139H322.542C322.372 727.684 314.883 722.482 305.649 722.482C296.296 722.482 288.739 727.769 288.739 734.326C279.386 734.326 271.795 739.646 271.795 746.203C271.795 752.761 279.386 758.081 288.739 758.081C289.806 758.081 290.857 757.979 291.89 757.844H325.49V757.59C333.453 756.607 339.502 751.795 339.502 745.949C339.502 739.443 331.911 734.139 322.575 734.139ZM305.683 746.288H305.632C305.632 746.254 305.649 746.254 305.649 746.22H305.683C305.683 746.254 305.683 746.254 305.683 746.288Z" fill="white"/>
<path d="M702.455 150.562C702.268 144.107 694.779 138.905 685.545 138.905C676.192 138.905 668.635 144.225 668.635 150.783C659.282 150.783 651.691 156.086 651.691 162.66C651.691 169.217 659.282 174.504 668.635 174.504C669.702 174.504 670.753 174.436 671.803 174.301H705.403V174.063C713.367 173.098 719.398 168.269 719.398 162.406C719.398 155.815 711.825 150.528 702.489 150.528H702.455V150.562ZM685.545 162.711C685.545 162.711 685.545 162.711 685.545 162.677C685.579 162.677 685.579 162.677 685.579 162.677V162.711H685.545Z" fill="white"/>
<path d="M52.729 130.315C55.0334 130.315 57.3038 130.111 59.4896 129.823H131.721V129.366C148.851 127.282 161.864 116.895 161.864 104.306C161.864 90.1747 145.581 78.7885 125.486 78.7885C125.486 78.7885 125.435 78.7885 125.401 78.7885C125.045 64.9285 108.931 53.7117 89.0903 53.7117C68.995 53.7117 52.729 65.1657 52.729 79.2629C32.6168 79.2629 16.3168 90.683 16.3168 104.814C16.2999 118.894 32.6168 130.315 52.729 130.315ZM89.0903 104.797C89.1242 104.797 89.1242 104.797 89.1581 104.797C89.1581 104.831 89.1581 104.865 89.1581 104.899H89.0395C89.0395 104.865 89.0903 104.865 89.0903 104.797Z" fill="white"/>
</svg>
