<svg width="40" height="30" viewBox="0 0 40 30" fill="none" xmlns="http://www.w3.org/2000/svg">
<path fill-rule="evenodd" clip-rule="evenodd" d="M1 4.91667C1.02703 4.42941 1.09839 4.11442 1.40819 3.41667C1.75463 2.84216 1.96482 2.54167 2.37301 2.08333C2.7812 1.625 3.18619 1.41688 3.41204 1.29167C3.63789 1.16646 4.08746 1.01754 4.48818 1H35.5107C36.0544 1.01118 36.4229 1.08184 36.9208 1.45832C37.619 1.96022 37.7116 2.14775 37.8857 2.33333C38.2873 2.83864 38.4606 3.12212 38.6278 3.41666C38.795 3.71119 39.0175 4.37613 38.9989 4.75V25.1667C38.9627 25.6067 38.8786 25.8398 38.702 26.25C38.5497 26.5646 38.4491 26.7484 38.2567 27.0833C38.063 27.3854 37.9306 27.5491 37.663 27.8333C37.3873 28.0686 37.2255 28.1967 36.9208 28.4167C36.2879 28.8139 35.9746 28.9505 35.5107 29H4.5624C4.06843 28.9497 3.7497 28.8347 3.07807 28.4167C2.66874 28.1599 2.4553 27.9823 2.11325 27.5833C1.84605 27.2055 1.7118 27.0024 1.51952 26.6667C1.17379 26.0798 1.06327 25.7337 1 25.0833V4.91667ZM3.41204 24.375V5.45833L12.3923 14.125L3.41204 24.375ZM34.7686 3.625H5.19324L18.478 16.5417C18.7813 16.8064 18.9982 16.8896 19.4428 16.9583H20.6303C21.0734 16.9097 21.2921 16.8211 21.5951 16.5417L34.7686 3.625ZM36.5869 24.7083V5.375L27.5324 14.2917L36.5869 24.7083ZM34.8057 26.375H4.97059L14.1734 15.7917L16.9937 18.5417C17.3134 18.8105 17.5005 18.969 18.0698 19.25C18.5471 19.4958 18.835 19.5363 19.2944 19.625H20.8158C21.0188 19.6234 21.2563 19.5417 21.9662 19.2083C22.4536 18.9921 22.6907 18.8406 23.0794 18.5417L25.7512 15.9583L34.8057 26.375Z" fill="white" stroke="black"/>
</svg>
