<?xml version="1.0" encoding="iso-8859-1"?>
<!-- Generator: Adobe Illustrator 21.1.0, SVG Export Plug-In . SVG Version: 6.00 Build 0)  -->
<svg version="1.1" id="Layer_1" xmlns="http://www.w3.org/2000/svg" xmlns:xlink="http://www.w3.org/1999/xlink" x="0px" y="0px"
	 viewBox="0 0 50 50" style="enable-background:new 0 0 50 50;" xml:space="preserve">
<path style="fill:none;stroke:#ffffff;stroke-width:2;stroke-miterlimit:10;" d="M43.361,7.242
	C42.077,7.758,5.633,23.389,5.633,23.389s-1.765,0.614-1.625,1.748s1.58,1.653,1.58,1.653l9.38,3.212c0,0,2.832,9.448,3.39,11.241
	c0.558,1.796,1.004,1.838,1.004,1.838c0.518,0.23,0.992-0.137,0.992-0.137l6.061-5.622l9.448,7.369
	c2.554,1.134,3.483-1.228,3.483-1.228l6.509-33.925C46.431,6.913,44.717,6.699,43.361,7.242z"/>
<polyline style="fill:none;stroke:#ffffff;stroke-width:2;stroke-linecap:round;stroke-linejoin:round;stroke-miterlimit:10;" points="
	15,30 39,14 22,34 "/>
<polyline style="fill:none;stroke:#ffffff;stroke-width:2;stroke-linecap:round;stroke-linejoin:round;stroke-miterlimit:10;" points="
	20,43 22,34 26,37 "/>
</svg>